<svg width="13" height="13" viewBox="0 0 13 13" fill="none" xmlns="http://www.w3.org/2000/svg">
<path fill-rule="evenodd" clip-rule="evenodd" d="M4.99004 1.87266e-07H7.97058C8.48213 -5.93e-06 8.9013 -1.09701e-05 9.24544 0.0258847C9.60298 0.052788 9.92498 0.109976 10.2345 0.247767C10.7252 0.466196 11.1446 0.818079 11.4449 1.26331C11.6344 1.54417 11.7467 1.85134 11.8353 2.19876C11.9206 2.53317 11.9935 2.94596 12.0824 3.44972L12.6382 6.59911C12.7789 7.39652 12.8917 8.03584 12.9375 8.55484C12.9844 9.08599 12.9689 9.55935 12.8061 10.0068C12.5501 10.7105 12.0543 11.3015 11.4058 11.6759C10.9935 11.914 10.53 12.0115 9.99876 12.0576C9.47972 12.1027 8.83054 12.1027 8.02083 12.1027H4.93979C4.13008 12.1027 3.4809 12.1027 2.96185 12.0576C2.43064 12.0115 1.96716 11.914 1.55484 11.6759C0.906343 11.3015 0.410521 10.7105 0.15447 10.0068C-0.00832721 9.55935 -0.0237882 9.08598 0.0230967 8.55484C0.0689077 8.03586 0.181731 7.39656 0.322453 6.59917L0.878238 3.44972C0.967132 2.94595 1.03997 2.53317 1.12528 2.19876C1.21391 1.85134 1.32619 1.54417 1.51567 1.26331C1.81604 0.818079 2.23546 0.466196 2.72612 0.247767C3.03564 0.109976 3.35764 0.052788 3.71518 0.0258847C4.05932 -1.09701e-05 4.47849 -5.93e-06 4.99004 1.87266e-07ZM5.20628 3.18491C5.20628 2.83312 4.92109 2.54793 4.56929 2.54793C4.2175 2.54793 3.93231 2.83312 3.93231 3.18491C3.93231 4.5921 5.07306 5.73284 6.48024 5.73284C7.88743 5.73284 9.02817 4.5921 9.02817 3.18491C9.02817 2.83312 8.74299 2.54793 8.39119 2.54793C8.03939 2.54793 7.75421 2.83312 7.75421 3.18491C7.75421 3.88851 7.18383 4.45888 6.48024 4.45888C5.77665 4.45888 5.20628 3.88851 5.20628 3.18491Z" fill="#204D51"/>
</svg>
