<svg width="24" height="25" viewBox="0 0 24 25" fill="none" xmlns="http://www.w3.org/2000/svg">
    <path fill-rule="evenodd" clip-rule="evenodd" d="M13 3.74136V1.50134C12.8323 1.49991 12.6543 1.49997 12.4633 1.50002L10.3572 1.50004C9.27341 1.50003 8.39926 1.50002 7.69138 1.55786C6.96253 1.61741 6.32234 1.74322 5.73005 2.04501C4.78924 2.52438 4.02434 3.28928 3.54497 4.23009C3.24318 4.82238 3.11737 5.46257 3.05782 6.19142C2.99998 6.89927 2.99999 7.7734 3 8.85711V16.1429C2.99999 17.2266 2.99998 18.1008 3.05782 18.8087C3.11737 19.5376 3.24318 20.1777 3.54497 20.77C4.02434 21.7108 4.78924 22.4757 5.73005 22.9551C6.32234 23.2569 6.96253 23.3827 7.69138 23.4423C8.39923 23.5001 9.27344 23.5001 10.3572 23.5001H13.6429C14.7267 23.5001 15.6008 23.5001 16.3086 23.4423C17.0375 23.3827 17.6777 23.2569 18.27 22.9551C19.2108 22.4757 19.9757 21.7108 20.455 20.77C20.7568 20.1777 20.8826 19.5376 20.9422 18.8087C21 18.1009 21 17.2266 21 16.1429V10.0371C21.0001 9.84599 21.0001 9.66785 20.9987 9.50006H18.7587C17.9537 9.50007 17.2894 9.50008 16.7482 9.45587C16.1861 9.40994 15.6694 9.31138 15.184 9.06409C14.4314 8.68059 13.8195 8.06867 13.436 7.31602C13.1887 6.83069 13.0901 6.31398 13.0442 5.75189C13 5.21069 13 4.54633 13 3.74136ZM16.4626 13.395C16.9187 13.0836 17.036 12.4614 16.7245 12.0053C16.4131 11.5492 15.7909 11.4319 15.3348 11.7434C13.6939 12.8639 12.2795 14.2782 11.1609 15.9114L9.70673 14.4587C9.316 14.0684 8.68283 14.0688 8.29252 14.4595C7.9022 14.8502 7.90254 15.4834 8.29327 15.8737L10.6345 18.2124C10.8549 18.4326 11.1653 18.5374 11.474 18.4961C11.7828 18.4547 12.0546 18.2718 12.2093 18.0013C13.2601 16.1638 14.7145 14.5888 16.4626 13.395Z" fill="#204D51" />
    <path d="M15 3.70006V1.78254C15.3333 1.89959 15.6537 2.05178 15.9556 2.23684C16.4615 2.54681 16.8862 2.97173 17.4997 3.58544L18.9132 4.99897C19.5277 5.61309 19.953 6.03818 20.2632 6.5444C20.4483 6.8464 20.6005 7.16679 20.7175 7.50006H18.8C17.9434 7.50006 17.3611 7.49928 16.911 7.46251C16.4726 7.42669 16.2484 7.36176 16.092 7.28207C15.7157 7.09033 15.4097 6.78436 15.218 6.40804C15.1383 6.25164 15.0734 6.02744 15.0376 5.58902C15.0008 5.13893 15 4.55664 15 3.70006Z" fill="#204D51" />
</svg> 