<svg width="156" height="32" viewBox="0 0 156 32" fill="none" xmlns="http://www.w3.org/2000/svg">
<path d="M15.9375 0C7.125 0 0 7.125 0 15.9375C0 24.75 7.125 31.875 15.9375 31.875C24.75 31.875 31.875 24.75 31.875 15.9375C31.875 7.125 24.75 0 15.9375 0ZM15.9375 24.1875C15.9375 24.1875 15.875 24.1875 15.875 24.1875C15.375 24.1875 14.9375 24 14.5625 23.5625L10.25 18.75C9.6875 18.125 9.6875 17.1875 10.1875 16.5625C10.6875 15.9375 11.5625 15.9375 12.0625 16.4375L15.375 20L21.4375 10C21.8125 9.4375 22.625 9.25 23.1875 9.625C23.75 10 23.9375 10.8125 23.5625 11.375L17.625 23.375C17.3125 23.875 16.75 24.1875 16.1875 24.1875C16.125 24.1875 16.0625 24.1875 15.9375 24.1875Z" fill="#2E2E2E"/>
<path d="M41.6855 11.75L47.123 18.8125L41.6855 23.75H48.873L52.5605 18.8125L48.873 11.75H41.6855Z" fill="#2E2E2E"/>
<path d="M57.4355 11.75V23.75H64.3105V18.5H69.998V11.75H57.4355ZM64.3105 16.25V14H65.373V16.25H64.3105Z" fill="#2E2E2E"/>
<path d="M75.998 11.75L78.623 23.75H75.873L74.8105 18.5H72.8105L71.748 23.75H68.998L71.623 11.75H75.998ZM72.9355 16.25H74.6855L74.373 14H73.248L72.9355 16.25Z" fill="#2E2E2E"/>
<path d="M84.5605 11.75L81.8105 23.75H84.5605L85.623 18.5H87.623L88.6855 23.75H91.4355L88.8105 11.75H84.5605ZM87.5605 16.25H85.8105L86.123 14H87.248L87.5605 16.25Z" fill="#2E2E2E"/>
<path d="M93.998 11.75V23.75H103.623V11.75H93.998ZM100.811 21.5H96.8105V14H100.811V21.5Z" fill="#2E2E2E"/>
<path d="M106.311 11.75L111.873 20.375V11.75H114.623V23.75H111.748L106.186 15.125V23.75H103.436V11.75H106.311Z" fill="#2E2E2E"/>
<path d="M117.311 11.75V23.75H124.186V11.75H117.311Z" fill="#2E2E2E"/>
<path d="M130.061 11.75V14.1875L132.811 11.75H136.561L133.123 15.125L136.686 19.375L136.186 21.625L132.561 18.1875V23.75H129.811V11.75H130.061Z" fill="#2E2E2E"/>
<path d="M139.186 11.75V23.75H146.061V11.75H139.186Z" fill="#2E2E2E"/>
<path d="M151.936 11.75V23.75H149.186V14H147.811V23.75H145.061V14H143.686V23.75H140.936V11.75H151.936Z" fill="#2E2E2E"/>
</svg> 