<svg width="18" height="18" viewBox="0 0 18 18" fill="none" xmlns="http://www.w3.org/2000/svg">
<path d="M12 4.5L11.1708 2.84164C10.7597 2.01939 9.9193 1.5 9 1.5C8.0807 1.5 7.2403 2.01939 6.82918 2.84164L6 4.5M3 4.5H15M7.5 8.25V12M10.5 8.25V12M4.5 4.5H13.5V11.25C13.5 12.6478 13.5 13.3467 13.2716 13.8981C12.9672 14.6331 12.3831 15.2172 11.6481 15.5216C11.0967 15.75 10.3978 15.75 9 15.75C7.60218 15.75 6.90326 15.75 6.35195 15.5216C5.61687 15.2172 5.03284 14.6331 4.72836 13.8981C4.5 13.3467 4.5 12.6478 4.5 11.25V4.5Z" stroke="#204D51" stroke-width="1.5" stroke-linecap="round" stroke-linejoin="round"/>
</svg>
