<svg width="68" height="32" viewBox="0 0 68 32" fill="none" xmlns="http://www.w3.org/2000/svg">
<g clip-path="url(#clip0_401_2004)">
<path d="M16 0C7.16344 0 0 7.16344 0 16C0 24.8366 7.16344 32 16 32C24.8366 32 32 24.8366 32 16C32 7.16344 24.8366 0 16 0ZM16.3312 24.2344C15.8281 24.2344 15.3969 24.0312 15.0375 23.625L10.2375 18.25C9.725 17.6562 9.69375 16.7812 10.1719 16.1562C10.65 15.5312 11.5156 15.4688 12.0281 15.9688L15.3656 19.75L21.4969 9.9375C21.8469 9.34375 22.65 9.15625 23.2344 9.49687C23.8187 9.8375 24.0125 10.65 23.6625 11.2344L17.7563 23.4062C17.4375 23.9062 16.9031 24.2344 16.3312 24.2344Z" fill="#2E2E2E"/>
<path d="M41.75 11.75V23.75H48.625V11.75H41.75Z" fill="#2E2E2E"/>
<path d="M54.5 11.75V23.75H61.375V11.75H54.5Z" fill="#2E2E2E"/>
<path d="M67.25 11.75V23.75H74.125V11.75H67.25Z" fill="#2E2E2E"/>
</g>
<defs>
<clipPath id="clip0_401_2004">
<rect width="68" height="32" fill="white"/>
</clipPath>
</defs>
</svg> 