<svg width="24" height="25" viewBox="0 0 24 25" fill="none" xmlns="http://www.w3.org/2000/svg">
    <path fill-rule="evenodd" clip-rule="evenodd" d="M9.90693 1.5001L10 1.50021H14L14.0931 1.5001C14.4618 1.49949 14.8242 1.49889 15.147 1.58539C16.0098 1.81656 16.6836 2.49043 16.9148 3.35316C16.9394 3.44482 16.9569 3.53968 16.9694 3.63696C17.4351 3.71397 17.8643 3.83851 18.27 4.04517C19.2108 4.52454 19.9757 5.28944 20.455 6.23025C20.7568 6.82255 20.8826 7.46273 20.9422 8.19158C21 8.89943 21 9.77355 21 10.8573V16.143C21 17.2268 21 18.101 20.9422 18.8088C20.8826 19.5377 20.7568 20.1779 20.455 20.7702C19.9757 21.711 19.2108 22.4759 18.27 22.9552C17.6777 23.257 17.0375 23.3828 16.3086 23.4424C15.6008 23.5002 14.7267 23.5002 13.6429 23.5002H10.3572C9.27344 23.5002 8.39923 23.5002 7.69138 23.4424C6.96253 23.3828 6.32234 23.257 5.73005 22.9552C4.78924 22.4759 4.02434 21.711 3.54497 20.7702C3.24318 20.1779 3.11737 19.5377 3.05782 18.8088C2.99998 18.101 2.99999 17.2268 3 16.143V10.8574C2.99999 9.77362 2.99998 8.89946 3.05782 8.19158C3.11737 7.46273 3.24318 6.82255 3.54497 6.23025C4.02434 5.28944 4.78924 4.52454 5.73005 4.04517C6.13565 3.83851 6.56486 3.71397 7.03058 3.63696C7.04309 3.53968 7.06063 3.44482 7.08519 3.35316C7.31635 2.49043 7.99022 1.81656 8.85295 1.58539C9.17579 1.49889 9.5382 1.49949 9.90693 1.5001ZM9.49861 3.50556C9.39195 3.51042 9.36685 3.51824 9.37059 3.51724C9.19805 3.56348 9.06327 3.69825 9.01704 3.8708C9.01704 3.8708 9.00992 3.89856 9.00535 3.99881C9.00024 4.11084 9 4.25865 9 4.50021L9 4.5385C9.00002 4.76569 9.00062 4.90509 9.00575 5.01002C9.01062 5.10964 9.01807 5.13345 9.01704 5.12962C9.06327 5.30216 9.19805 5.43694 9.37059 5.48317C9.36685 5.48217 9.39195 5.48999 9.49861 5.49486C9.61063 5.49996 9.75845 5.50021 10 5.50021H14C14.2416 5.50021 14.3894 5.49996 14.5014 5.49486C14.608 5.48999 14.6331 5.48217 14.6294 5.48317C14.802 5.43694 14.9367 5.30216 14.983 5.12962C14.9819 5.13345 14.9894 5.10964 14.9943 5.01002C14.9994 4.90508 15 4.76569 15 4.53849V4.50021C15 4.25865 14.9998 4.11084 14.9946 3.99881C14.9898 3.89216 14.982 3.86706 14.983 3.8708C14.9367 3.69825 14.802 3.56348 14.6294 3.51724C14.6331 3.51824 14.608 3.51042 14.5014 3.50556C14.3894 3.50045 14.2416 3.50021 14 3.50021H10C9.75845 3.50021 9.61063 3.50045 9.49861 3.50556ZM8 10.5C7.44772 10.5 7 10.9477 7 11.5C7 12.0523 7.44772 12.5 8 12.5H8.01C8.56229 12.5 9.01 12.0523 9.01 11.5C9.01 10.9477 8.56229 10.5 8.01 10.5H8ZM11 10.5C10.4477 10.5 10 10.9477 10 11.5C10 12.0523 10.4477 12.5 11 12.5H16C16.5523 12.5 17 12.0523 17 11.5C17 10.9477 16.5523 10.5 16 10.5H11ZM8 15.5C7.44772 15.5 7 15.9477 7 16.5C7 17.0523 7.44772 17.5 8 17.5H8.01C8.56229 17.5 9.01 17.0523 9.01 16.5C9.01 15.9477 8.56229 15.5 8.01 15.5H8ZM11 15.5C10.4477 15.5 10 15.9477 10 16.5C10 17.0523 10.4477 17.5 11 17.5H16C16.5523 17.5 17 17.0523 17 16.5C17 15.9477 16.5523 15.5 16 15.5H11Z" fill="#204D51" />
</svg> 