<svg width="122" height="24" viewBox="0 0 122 24" fill="none" xmlns="http://www.w3.org/2000/svg">
<path d="M0.928541 18.6562V1.85928H8.66344C10.5298 1.85928 11.9744 2.32932 12.9975 3.2694C14.0343 4.19565 14.5527 5.47443 14.5527 7.10574C14.5527 8.72323 14.0343 10.002 12.9975 10.9421C11.9744 11.8822 10.5298 12.3522 8.66344 12.3522H3.81098V18.6562H0.928541ZM3.81098 9.8845H8.49754C9.53439 9.8845 10.3224 9.63566 10.8616 9.13797C11.4007 8.64028 11.6703 7.96287 11.6703 7.10574C11.6703 6.23479 11.4007 5.55738 10.8616 5.07352C10.3224 4.57583 9.53439 4.32699 8.49754 4.32699H3.81098V9.8845ZM19.4959 18.8844C18.072 18.8844 16.9453 18.5318 16.1158 17.8268C15.3001 17.1217 14.8923 16.1955 14.8923 15.048C14.8923 13.8453 15.3071 12.9121 16.1365 12.2485C16.966 11.5849 18.1549 11.2531 19.7033 11.2531H23.6433V10.7347C23.6433 9.07576 22.7032 8.24628 20.8231 8.24628C19.2333 8.24628 18.2794 8.82 17.9614 9.96745H15.1412C15.3762 8.68176 15.9845 7.69329 16.966 7.00206C17.9614 6.31083 19.254 5.96521 20.8438 5.96521C22.6272 5.96521 23.9889 6.37995 24.929 7.20943C25.8691 8.02508 26.3391 9.21401 26.3391 10.7762V15.8153H27.687V18.6562H24.7631V16.6862H23.8922C23.4636 17.3775 22.883 17.9166 22.1503 18.3037C21.4176 18.6908 20.5328 18.8844 19.4959 18.8844ZM19.9107 16.6862C20.6157 16.6862 21.2517 16.548 21.8185 16.2715C22.3853 15.995 22.8277 15.6286 23.1456 15.1724C23.4774 14.7024 23.6433 14.184 23.6433 13.6172V13.2232H19.8485C18.3277 13.2232 17.5674 13.79 17.5674 14.9236C17.5674 15.4766 17.7748 15.9121 18.1895 16.23C18.6042 16.5342 19.178 16.6862 19.9107 16.6862ZM28.6115 18.6562V16.8521L35.6413 8.47439H28.9847V6.21405H39.1251V8.01817L32.0745 16.3959H39.2495V18.6562H28.6115ZM32.5515 4.6173L29.6898 0.926119V0.843171H31.7842L33.8994 2.77171L36.0146 0.843171H38.109V0.926119L35.2473 4.6173H32.5515ZM40.9658 23.6331V21.3728H43.8483L44.9888 18.6355L39.5143 6.21405H42.4589L46.3782 15.3383H46.4819L50.256 6.21405H53.0762L47.7676 18.6562L46.627 21.3521C46.3229 22.0709 45.9911 22.6308 45.6317 23.0318C45.2861 23.4327 44.7123 23.6331 43.9105 23.6331H40.9658ZM54.8139 18.6562V9.05502H53.3831V6.21405H56.3277V8.18407H57.2816C57.6687 7.47901 58.2079 6.93985 58.8991 6.56658C59.6042 6.17949 60.4544 5.98595 61.4498 5.98595C62.4313 5.98595 63.2677 6.17258 63.959 6.54584C64.664 6.91911 65.2308 7.47901 65.6594 8.22554H65.7216C66.634 6.73248 68.058 5.98595 69.9934 5.98595C71.5556 5.98595 72.786 6.44216 73.6846 7.35459C74.5832 8.25319 75.0325 9.48359 75.0325 11.0458V18.6562H72.2123V11.5435C72.2123 9.49741 71.2307 8.47439 69.2676 8.47439C67.3045 8.47439 66.323 9.49741 66.323 11.5435V18.6562H63.5027V11.5435C63.5027 9.49741 62.5143 8.47439 60.5374 8.47439C59.5835 8.47439 58.8577 8.73705 58.36 9.26239C57.8761 9.7739 57.6342 10.5343 57.6342 11.5435V18.6562H54.8139ZM83.2262 18.9051C81.9129 18.9051 80.7654 18.6424 79.7839 18.1171C78.8162 17.5779 78.0627 16.8245 77.5235 15.8568C76.9844 14.889 76.7148 13.7485 76.7148 12.4352C76.7148 11.1218 76.9775 9.98127 77.5028 9.01355C78.042 8.04582 78.8023 7.29929 79.7839 6.77395C80.7654 6.23479 81.9198 5.96521 83.247 5.96521C84.5879 5.96521 85.7423 6.22788 86.71 6.75321C87.6778 7.27855 88.4243 8.02508 88.9496 8.99281C89.475 9.96054 89.7376 11.108 89.7376 12.4352C89.7376 13.7485 89.475 14.8959 88.9496 15.8775C88.4243 16.8452 87.6708 17.5918 86.6893 18.1171C85.7216 18.6424 84.5672 18.9051 83.2262 18.9051ZM83.2262 16.4581C84.4013 16.4581 85.3068 16.0987 85.9428 15.3798C86.5925 14.6609 86.9174 13.6794 86.9174 12.4352C86.9174 11.1633 86.5925 10.1748 85.9428 9.46976C85.3068 8.7647 84.4013 8.41217 83.2262 8.41217C82.0649 8.41217 81.1594 8.77162 80.5097 9.4905C79.8599 10.1956 79.535 11.1771 79.535 12.4352C79.535 13.6794 79.8599 14.6609 80.5097 15.3798C81.1594 16.0987 82.0649 16.4581 83.2262 16.4581ZM96.6256 18.9051C94.856 18.9051 93.4597 18.5387 92.4367 17.806C91.4137 17.0595 90.8538 16.0227 90.757 14.6955H93.515C93.6118 15.3729 93.9228 15.8775 94.4482 16.2093C94.9735 16.5411 95.7339 16.707 96.7292 16.707C98.4435 16.707 99.3006 16.1955 99.3006 15.1724C99.3006 14.7577 99.1693 14.4328 98.9066 14.1978C98.644 13.9628 98.2085 13.79 97.6002 13.6794L94.8422 13.1609C92.4505 12.7047 91.2547 11.5711 91.2547 9.76008C91.2547 8.59881 91.7109 7.67947 92.6233 7.00206C93.5357 6.31083 94.7869 5.96521 96.3767 5.96521C97.9804 5.96521 99.2522 6.31774 100.192 7.0228C101.146 7.72785 101.678 8.7094 101.789 9.96745H99.0725C98.9205 9.33151 98.6163 8.86148 98.1601 8.55733C97.7177 8.25319 97.0749 8.10112 96.2316 8.10112C95.485 8.10112 94.9113 8.22554 94.5104 8.47439C94.1095 8.72323 93.909 9.08267 93.909 9.55271C93.909 9.89833 94.0334 10.1817 94.2823 10.4029C94.5449 10.6103 94.9528 10.7693 95.5058 10.8799L98.2845 11.419C99.5426 11.6541 100.462 12.0619 101.043 12.6425C101.623 13.2093 101.913 13.9766 101.913 14.9443C101.913 16.1885 101.457 17.1632 100.545 17.8682C99.6324 18.5595 98.326 18.9051 96.6256 18.9051ZM104.866 18.9051C104.354 18.9051 103.919 18.7254 103.559 18.3659C103.214 18.0065 103.041 17.571 103.041 17.0595C103.041 16.548 103.214 16.1125 103.559 15.7531C103.919 15.3936 104.354 15.2139 104.866 15.2139C105.377 15.2139 105.813 15.3936 106.172 15.7531C106.532 16.1125 106.712 16.548 106.712 17.0595C106.712 17.571 106.532 18.0065 106.172 18.3659C105.813 18.7254 105.377 18.9051 104.866 18.9051ZM108.783 18.6562V1.23717H111.604V18.6562H108.783ZM117.641 18.6562C116.881 18.6562 116.286 18.4627 115.857 18.0756C115.443 17.6885 115.235 17.101 115.235 16.313V8.41217H112.996V6.21405H115.256V2.48139H118.035V6.21405H121.125V8.41217H118.056V16.4374H121.436V18.6562H117.641Z" fill="#0E0126"/>
</svg>
