<svg width="24" height="24" viewBox="0 0 24 24" fill="none" xmlns="http://www.w3.org/2000/svg">
<path d="M5.40902 12.974C4.17159 10.8771 3.35796 8.43264 3.03664 5.70916C2.89554 4.51323 3.6369 3.25377 4.89904 3.04738C5.29565 2.98252 5.78602 2.99232 6.18939 3.0287C7.87252 3.18051 8.56829 4.6661 8.93766 6.10803C9.43222 8.03869 8.82973 10.0852 7.36804 11.4397C6.76318 12.0002 6.06227 12.4721 5.40902 12.974ZM5.40902 12.974C6.72577 15.2053 8.52239 17.043 10.7163 18.4047M10.7163 18.4047C12.8804 19.7478 15.4311 20.6276 18.2891 20.965C19.4851 21.1062 20.7441 20.3643 20.9504 19.1022C21.0211 18.6693 21.0127 18.1714 20.9612 17.7362C20.7516 15.9658 19.0472 15.2967 17.5261 14.9479C15.7929 14.5505 13.975 15.0271 12.6596 16.2238C11.9455 16.8733 11.3483 17.6768 10.7163 18.4047Z" stroke="#0E0126" stroke-width="2" stroke-linecap="round" stroke-linejoin="round"/>
</svg>
