<svg width="23" height="25" viewBox="0 0 23 25" fill="none" xmlns="http://www.w3.org/2000/svg">
<path fill-rule="evenodd" clip-rule="evenodd" d="M4.79038 17.7974C4.38213 17.2813 3.88619 16.2262 3.00356 14.9454C2.50331 14.2209 1.26275 12.8567 0.893313 12.1638C0.57275 11.5515 0.60725 11.2769 0.683438 10.7695C0.818563 9.8667 1.74431 9.16376 2.73188 9.25864C3.47794 9.32908 4.11044 9.82214 4.67969 10.2879C5.02325 10.5682 5.44588 11.113 5.70031 11.4206C5.93463 11.7024 5.99213 11.8188 6.24225 12.1523C6.57288 12.5936 6.67638 12.8121 6.54988 12.3263C6.44781 11.6133 6.28106 10.3957 6.03956 9.31901C5.85556 8.50251 5.811 8.37458 5.63563 7.74783C5.45019 7.08083 5.35531 6.61364 5.18138 5.90639C5.06063 5.40614 4.84356 4.38408 4.78463 3.80908C4.70269 3.02276 4.65956 1.74051 5.16413 1.15114C5.55944 0.689702 6.4665 0.550264 7.02856 0.834889C7.76456 1.2072 8.18288 2.2767 8.37406 2.70364C8.71763 3.47126 8.93038 4.3582 9.11581 5.52258C9.35156 7.00464 9.78569 9.0617 9.80006 9.49439C9.83456 8.96395 9.70231 7.84701 9.79431 7.33814C9.87769 6.8767 10.2658 6.34051 10.7517 6.19533C11.1628 6.07314 11.6444 6.02858 12.0684 6.11626C12.5184 6.20826 12.9927 6.53026 13.1696 6.83358C13.6899 7.73058 13.7 9.56339 13.7216 9.46564C13.8452 8.92514 13.8236 7.69895 14.1298 7.18864C14.3311 6.85226 14.8442 6.54895 15.1174 6.50008C15.54 6.42533 16.0589 6.40233 16.5031 6.48858C16.8611 6.55901 17.3455 6.98451 17.4763 7.18864C17.7897 7.68314 17.9679 9.08183 18.0211 9.57201C18.0427 9.7747 18.1275 9.00851 18.4423 8.51401C19.0259 7.59545 21.0916 7.4172 21.1707 9.43258C21.2066 10.3727 21.1994 10.3296 21.1994 10.9621C21.1994 11.7053 21.1822 12.1523 21.1419 12.69C21.0974 13.265 20.9738 14.5645 20.7941 15.1941C20.6704 15.6268 20.2607 16.6 19.8568 17.1836C19.8568 17.1836 18.3129 18.9805 18.1448 19.7898C17.9751 20.5976 18.0312 20.6034 17.9981 21.177C17.9651 21.7491 18.1721 22.5023 18.1721 22.5023C18.1721 22.5023 17.0192 22.6518 16.3982 22.5526C15.8361 22.4621 15.1404 21.3437 14.9607 21.0016C14.7134 20.5301 14.1859 20.6206 13.9803 20.9685C13.6569 21.5191 12.9611 22.5066 12.4695 22.5685C11.5092 22.6892 9.51688 22.613 7.95719 22.5972C7.95719 22.5972 8.22313 21.1439 7.63088 20.6451C7.19244 20.2728 6.43775 19.5181 5.98637 19.1213L4.79038 17.7974Z" fill="white"/>
<path fill-rule="evenodd" clip-rule="evenodd" d="M4.79038 17.7974C4.38213 17.2813 3.88619 16.2262 3.00356 14.9454C2.50331 14.2209 1.26275 12.8567 0.893313 12.1638C0.57275 11.5515 0.60725 11.2769 0.683438 10.7695C0.818563 9.8667 1.74431 9.16376 2.73188 9.25864C3.47794 9.32908 4.11044 9.82214 4.67969 10.2879C5.02325 10.5682 5.44588 11.113 5.70031 11.4206C5.93463 11.7024 5.99212 11.8188 6.24225 12.1523C6.57287 12.5936 6.67638 12.8121 6.54988 12.3263C6.44781 11.6133 6.28106 10.3957 6.03956 9.31901C5.85556 8.50251 5.811 8.37458 5.63563 7.74783C5.45019 7.08083 5.35531 6.61364 5.18137 5.90639C5.06062 5.40614 4.84356 4.38408 4.78463 3.80908C4.70269 3.02276 4.65956 1.74051 5.16413 1.15114C5.55944 0.689702 6.4665 0.550264 7.02856 0.834889C7.76456 1.2072 8.18288 2.2767 8.37406 2.70364C8.71763 3.47126 8.93038 4.3582 9.11581 5.52258C9.35156 7.00464 9.78569 9.0617 9.80006 9.49439C9.83456 8.96395 9.70231 7.84701 9.79431 7.33814C9.87769 6.8767 10.2658 6.34051 10.7517 6.19533C11.1628 6.07314 11.6444 6.02858 12.0684 6.11626C12.5184 6.20826 12.9927 6.53026 13.1696 6.83358C13.6899 7.73058 13.7 9.56339 13.7216 9.46564C13.8452 8.92514 13.8236 7.69895 14.1298 7.18864C14.3311 6.85226 14.8442 6.54895 15.1174 6.50008C15.54 6.42533 16.0589 6.40233 16.5031 6.48858C16.8611 6.55901 17.3455 6.98451 17.4763 7.18864C17.7897 7.68314 17.9679 9.08183 18.0211 9.57201C18.0427 9.7747 18.1275 9.00851 18.4423 8.51401C19.0259 7.59545 21.0916 7.4172 21.1707 9.43258C21.2066 10.3727 21.1994 10.3296 21.1994 10.9621C21.1994 11.7053 21.1822 12.1523 21.1419 12.69C21.0974 13.265 20.9738 14.5645 20.7941 15.1941C20.6704 15.6268 20.2607 16.6 19.8568 17.1836C19.8568 17.1836 18.3129 18.9805 18.1447 19.7898C17.9751 20.5976 18.0312 20.6034 17.9981 21.177C17.9651 21.7491 18.1721 22.5023 18.1721 22.5023C18.1721 22.5023 17.0192 22.6518 16.3982 22.5526C15.8361 22.4621 15.1404 21.3437 14.9607 21.0016C14.7134 20.5301 14.1859 20.6206 13.9803 20.9685C13.6569 21.5191 12.9611 22.5066 12.4695 22.5685C11.5092 22.6892 9.51688 22.613 7.95719 22.5972C7.95719 22.5972 8.22313 21.1439 7.63088 20.6451C7.19244 20.2728 6.43775 19.5181 5.98637 19.1213L4.79038 17.7974Z" stroke="black" stroke-width="1.07812" stroke-linecap="round" stroke-linejoin="round"/>
<path d="M16.6279 18.3043V13.332" stroke="black" stroke-width="1.07812" stroke-linecap="round"/>
<path d="M13.731 18.3245L13.708 13.332" stroke="black" stroke-width="1.07812" stroke-linecap="round"/>
<path d="M10.8613 13.3789L10.8915 18.3038" stroke="black" stroke-width="1.07812" stroke-linecap="round"/>
</svg>
