<svg width="24" height="25" viewBox="0 0 24 25" fill="none" xmlns="http://www.w3.org/2000/svg">
    <path d="M6.99961 2.34961C4.70763 2.34961 2.84961 4.20763 2.84961 6.49961C2.84961 8.79159 4.70763 10.6496 6.99961 10.6496C9.29159 10.6496 11.1496 8.79159 11.1496 6.49961C11.1496 4.20763 9.29159 2.34961 6.99961 2.34961Z" fill="#204D51" />
    <path d="M17.9996 3.49959C17.9996 2.9473 17.5519 2.49959 16.9996 2.49959C16.4473 2.49959 15.9996 2.9473 15.9996 3.49959L15.9996 7.9069C15.6679 7.87686 15.3312 7.8363 14.9792 7.79392C14.6986 7.76012 14.4082 7.72515 14.1031 7.69341C13.7077 7.6523 13.3255 7.84927 13.1296 8.19512C12.9336 8.54098 12.9611 8.97005 13.1996 9.28805C13.9892 10.3408 14.9052 11.2916 15.9265 12.1191C16.2388 12.3722 16.6196 12.4996 16.9996 12.4996C17.3797 12.4996 17.7604 12.3722 18.0728 12.1191C19.094 11.2916 20.01 10.3408 20.7996 9.28805C21.0381 8.97005 21.0656 8.54098 20.8697 8.19512C20.6738 7.84927 20.2916 7.6523 19.8962 7.69341C19.591 7.72515 19.3007 7.76012 19.02 7.79391C18.6681 7.8363 18.3314 7.87686 17.9996 7.9069L17.9996 3.49959Z" fill="#204D51" />
    <path d="M6.99964 12.4996C6.61958 12.4996 6.23883 12.6269 5.92649 12.88C4.90523 13.7076 3.98923 14.6583 3.19964 15.7111C2.96116 16.0291 2.93363 16.4581 3.1295 16.8039C3.32537 17.1498 3.70746 17.3468 4.10279 17.3058C4.40819 17.2741 4.6987 17.2392 4.97952 17.2055C5.33131 17.1632 5.66801 17.1227 5.99963 17.0928L5.99963 21.4996C5.99963 22.0519 6.44735 22.4996 6.99963 22.4996C7.55192 22.4996 7.99963 22.0519 7.99963 21.4996L7.99963 17.0928C8.33126 17.1227 8.66785 17.1632 9.01964 17.2054C9.30047 17.2392 9.59108 17.2741 9.89648 17.3058C10.2918 17.3468 10.6739 17.1498 10.8698 16.8039C11.0656 16.4581 11.0381 16.0291 10.7996 15.7111C10.01 14.6583 9.09404 13.7076 8.07278 12.88C7.76044 12.6269 7.37969 12.4996 6.99964 12.4996Z" fill="#204D51" />
    <path d="M16.9996 14.3496C14.7076 14.3496 12.8496 16.2076 12.8496 18.4996C12.8496 20.7916 14.7076 22.6496 16.9996 22.6496C19.2916 22.6496 21.1496 20.7916 21.1496 18.4996C21.1496 16.2076 19.2916 14.3496 16.9996 14.3496Z" fill="#204D51" />
</svg> 