<svg width="24" height="24" viewBox="0 0 24 24" fill="none" xmlns="http://www.w3.org/2000/svg">
<path d="M1.99962 7.84669C1.99962 7.75201 2.02184 7.65741 2.06617 7.56996C2.16415 7.37666 2.45347 7.23397 3.03211 6.9486L9.09632 3.95783C10.1588 3.4338 10.6901 3.17179 11.2497 3.06886C11.7451 2.97772 12.2546 2.97775 12.7501 3.06894C13.3096 3.17193 13.8409 3.434 14.9033 3.95813L20.9672 6.94954C21.5458 7.23498 21.8351 7.3777 21.9331 7.57101C22.0185 7.73947 22.0218 7.9345 21.9423 8.10546C21.851 8.30164 21.5667 8.45305 20.9982 8.75587L15.0804 11.9079C13.9569 12.5064 13.3951 12.8056 12.7991 12.9228C12.2716 13.0265 11.7271 13.0264 11.1996 12.9227C10.6036 12.8054 10.0419 12.5062 8.91843 11.9076L3.00095 8.75492C2.43246 8.45204 2.14822 8.3006 2.05695 8.10441C2.0187 8.02219 1.99962 7.93441 1.99962 7.84669ZM1.99962 7.84669L1.99925 15M4.99952 9.81971L4.99919 16.1358C4.99917 16.474 4.99916 16.6431 5.04851 16.7943C5.09217 16.9281 5.16358 17.0512 5.25808 17.1555C5.36488 17.2734 5.51168 17.3573 5.80529 17.5251L6.44234 17.8892C8.46765 19.0466 9.48032 19.6254 10.5558 19.852C11.5075 20.0526 12.4905 20.0526 13.4422 19.8522C14.5177 19.6256 15.5304 19.047 17.5559 17.8897L18.1929 17.5257C18.4866 17.358 18.6334 17.2741 18.7402 17.1562C18.8347 17.0519 18.9061 16.9289 18.9498 16.7951C18.9992 16.6438 18.9992 16.4843 18.9992 16.1462L18.9995 9.82045" stroke="#111111" stroke-width="2" stroke-linecap="round" stroke-linejoin="round"/>
</svg>
